<svg width="36" height="36" viewBox="0 0 36 36" fill="none" xmlns="http://www.w3.org/2000/svg">
<path d="M26.9995 9.00049H23.9995C23.9995 5.68549 21.3145 3.00049 17.9995 3.00049C14.6845 3.00049 11.9995 5.68549 11.9995 9.00049H8.99951C7.34951 9.00049 5.99951 10.3505 5.99951 12.0005V30.0005C5.99951 31.6505 7.34951 33.0005 8.99951 33.0005H26.9995C28.6495 33.0005 29.9995 31.6505 29.9995 30.0005V12.0005C29.9995 10.3505 28.6495 9.00049 26.9995 9.00049ZM17.9995 6.00049C19.6495 6.00049 20.9995 7.35049 20.9995 9.00049H14.9995C14.9995 7.35049 16.3495 6.00049 17.9995 6.00049ZM26.9995 30.0005H8.99951V12.0005H11.9995V15.0005C11.9995 15.8255 12.6745 16.5005 13.4995 16.5005C14.3245 16.5005 14.9995 15.8255 14.9995 15.0005V12.0005H20.9995V15.0005C20.9995 15.8255 21.6745 16.5005 22.4995 16.5005C23.3245 16.5005 23.9995 15.8255 23.9995 15.0005V12.0005H26.9995V30.0005Z" fill="black"/>
</svg>
