<svg width="23" height="23" viewBox="0 0 23 23" fill="none" xmlns="http://www.w3.org/2000/svg">
<path d="M18.4 18.4C17.1235 18.4 16.1 19.4235 16.1 20.7C16.1 21.31 16.3423 21.895 16.7737 22.3263C17.205 22.7577 17.79 23 18.4 23C19.01 23 19.595 22.7577 20.0263 22.3263C20.4577 21.895 20.7 21.31 20.7 20.7C20.7 19.4235 19.665 18.4 18.4 18.4ZM0 0V2.3H2.3L6.44 11.0285L4.876 13.846C4.7035 14.168 4.6 14.5475 4.6 14.95C4.6 15.56 4.84232 16.145 5.27365 16.5763C5.70499 17.0077 6.29 17.25 6.9 17.25H20.7V14.95H7.383C7.30675 14.95 7.23362 14.9197 7.17971 14.8658C7.12579 14.8119 7.0955 14.7387 7.0955 14.6625C7.0955 14.605 7.107 14.559 7.13 14.5245L8.165 12.65H16.7325C17.595 12.65 18.354 12.167 18.745 11.4655L22.862 4.025C22.9425 3.841 23 3.6455 23 3.45C23 3.145 22.8788 2.85249 22.6632 2.63683C22.4475 2.42116 22.155 2.3 21.85 2.3H4.8415L3.7605 0M6.9 18.4C5.6235 18.4 4.6 19.4235 4.6 20.7C4.6 21.31 4.84232 21.895 5.27365 22.3263C5.70499 22.7577 6.29 23 6.9 23C7.51 23 8.09501 22.7577 8.52635 22.3263C8.95768 21.895 9.2 21.31 9.2 20.7C9.2 19.4235 8.165 18.4 6.9 18.4Z" fill="black"/>
</svg>
