<svg width="29" height="21" viewBox="0 0 29 21" fill="none" xmlns="http://www.w3.org/2000/svg">
<path d="M14.5 0C7.90909 0 2.28045 3.95818 0 9.54545C2.28045 15.1327 7.90909 19.0909 14.5 19.0909C14.9745 19.0909 15.4491 19.0909 15.9236 19.0273C15.8577 18.62 15.8182 18.2255 15.8182 17.8182C15.8182 17.36 15.8709 16.9018 15.95 16.4436C15.4755 16.4945 14.9877 16.5455 14.5 16.5455C9.54364 16.5455 5.04864 13.8218 2.87364 9.54545C5.04864 5.26909 9.54364 2.54545 14.5 2.54545C19.4564 2.54545 23.9514 5.26909 26.1264 9.54545C25.9682 9.85091 25.7836 10.1182 25.6123 10.4109C26.4823 10.6145 27.3127 10.9582 28.0641 11.4545C28.42 10.8182 28.7364 10.1818 29 9.54545C26.7195 3.95818 21.0909 0 14.5 0ZM14.5 5.72727C12.3118 5.72727 10.5455 7.43273 10.5455 9.54545C10.5455 11.6582 12.3118 13.3636 14.5 13.3636C16.6882 13.3636 18.4545 11.6582 18.4545 9.54545C18.4545 7.43273 16.6882 5.72727 14.5 5.72727ZM22.4091 13.3636V15.9091H27.6818V18.4545H22.4091V21L18.4545 17.1818L22.4091 13.3636Z" fill="black"/>
</svg>
