<svg width="31" height="31" viewBox="0 0 31 31" fill="none" xmlns="http://www.w3.org/2000/svg">
<path d="M15.6293 23.9604L15.5002 24.0896L15.3581 23.9604C9.22266 18.3933 5.16683 14.7121 5.16683 10.9792C5.16683 8.39583 7.10433 6.45833 9.68766 6.45833C11.6768 6.45833 13.6143 7.75 14.2989 9.50667H16.7014C17.386 7.75 19.3235 6.45833 21.3127 6.45833C23.896 6.45833 25.8335 8.39583 25.8335 10.9792C25.8335 14.7121 21.7777 18.3933 15.6293 23.9604ZM21.3127 3.875C19.0652 3.875 16.9081 4.92125 15.5002 6.56167C14.0922 4.92125 11.9352 3.875 9.68766 3.875C5.70933 3.875 2.5835 6.98792 2.5835 10.9792C2.5835 15.8487 6.97516 19.84 13.6272 25.8721L15.5002 27.5771L17.3731 25.8721C24.0252 19.84 28.4168 15.8487 28.4168 10.9792C28.4168 6.98792 25.291 3.875 21.3127 3.875Z" fill="black"/>
</svg>
