<svg width="26" height="17" viewBox="0 0 26 17" fill="none" xmlns="http://www.w3.org/2000/svg">
<path d="M0 0H26V17H0V0ZM13 4.25C14.1493 4.25 15.2515 4.69777 16.0641 5.4948C16.8768 6.29183 17.3333 7.37283 17.3333 8.5C17.3333 9.62717 16.8768 10.7082 16.0641 11.5052C15.2515 12.3022 14.1493 12.75 13 12.75C11.8507 12.75 10.7485 12.3022 9.93587 11.5052C9.12321 10.7082 8.66667 9.62717 8.66667 8.5C8.66667 7.37283 9.12321 6.29183 9.93587 5.4948C10.7485 4.69777 11.8507 4.25 13 4.25ZM5.77778 2.83333C5.77778 3.58478 5.47341 4.30545 4.93164 4.8368C4.38987 5.36816 3.65507 5.66667 2.88889 5.66667V11.3333C3.65507 11.3333 4.38987 11.6318 4.93164 12.1632C5.47341 12.6946 5.77778 13.4152 5.77778 14.1667H20.2222C20.2222 13.4152 20.5266 12.6946 21.0684 12.1632C21.6101 11.6318 22.3449 11.3333 23.1111 11.3333V5.66667C22.3449 5.66667 21.6101 5.36816 21.0684 4.8368C20.5266 4.30545 20.2222 3.58478 20.2222 2.83333H5.77778Z" fill="black"/>
</svg>
