<svg width="32" height="24" viewBox="0 0 32 24" fill="none" xmlns="http://www.w3.org/2000/svg">
<path d="M22.4 20.8V24H0V20.8C0 20.8 0 14.4 11.2 14.4C22.4 14.4 22.4 20.8 22.4 20.8ZM16.8 5.60006C16.8 4.49249 16.4716 3.40979 15.8562 2.48888C15.2409 1.56797 14.3663 0.850207 13.343 0.426358C12.3198 0.00250825 11.1938 -0.10839 10.1075 0.107686C9.0212 0.323763 8.02338 0.857109 7.2402 1.64028C6.45703 2.42345 5.92368 3.42127 5.7076 4.50756C5.49153 5.59385 5.60242 6.71982 6.02628 7.74308C6.45013 8.76635 7.16789 9.64094 8.08881 10.2563C9.00972 10.8716 10.0924 11.2 11.2 11.2C12.6852 11.2 14.1096 10.61 15.1598 9.55985C16.21 8.50965 16.8 7.08527 16.8 5.60006ZM22.304 14.4C23.2876 15.1612 24.0924 16.1287 24.6619 17.2344C25.2313 18.3402 25.5515 19.5572 25.6 20.8V24H32V20.8C32 20.8 32 14.992 22.304 14.4ZM20.8 8.41261e-05C19.6987 -0.0060482 18.6216 0.323212 17.712 0.944081C18.6839 2.30205 19.2065 3.93013 19.2065 5.60006C19.2065 7.27 18.6839 8.89807 17.712 10.256C18.6216 10.8769 19.6987 11.2062 20.8 11.2C22.2852 11.2 23.7096 10.61 24.7598 9.55985C25.81 8.50965 26.4 7.08527 26.4 5.60006C26.4 4.11486 25.81 2.69048 24.7598 1.64028C23.7096 0.590081 22.2852 8.41261e-05 20.8 8.41261e-05Z" fill="black"/>
</svg>
