<svg width="48" height="48" viewBox="0 0 48 48" fill="none" xmlns="http://www.w3.org/2000/svg">
<g clip-path="url(#clip0_173_19)">
<path d="M24.5 12.625C26.4938 12.625 28.125 14.2562 28.125 16.25C28.125 18.2438 26.4938 19.875 24.5 19.875C22.5062 19.875 20.875 18.2438 20.875 16.25C20.875 14.2562 22.5062 12.625 24.5 12.625ZM24.5 28.9375C29.3938 28.9375 35.0125 31.2756 35.375 32.5625V34.375H13.625V32.5806C13.9875 31.2756 19.6062 28.9375 24.5 28.9375ZM24.5 9C20.4944 9 17.25 12.2444 17.25 16.25C17.25 20.2556 20.4944 23.5 24.5 23.5C28.5056 23.5 31.75 20.2556 31.75 16.25C31.75 12.2444 28.5056 9 24.5 9ZM24.5 25.3125C19.6606 25.3125 10 27.7412 10 32.5625V38H39V32.5625C39 27.7412 29.3394 25.3125 24.5 25.3125Z" fill="white"/>
</g>
<defs>
<clipPath id="clip0_173_19">
<rect width="48" height="48" fill="white"/>
</clipPath>
</defs>
</svg>
