<svg width="45" height="45" viewBox="0 0 45 45" fill="none" xmlns="http://www.w3.org/2000/svg">
<path d="M33.1428 11.0477H29.4602C29.4602 6.97849 26.1644 3.68262 22.0951 3.68262C18.0259 3.68262 14.7301 6.97849 14.7301 11.0477H11.0475C9.02213 11.0477 7.36499 12.7048 7.36499 14.7302V36.8255C7.36499 38.8509 9.02213 40.508 11.0475 40.508H33.1428C35.1682 40.508 36.8253 38.8509 36.8253 36.8255V14.7302C36.8253 12.7048 35.1682 11.0477 33.1428 11.0477ZM22.0951 7.36516C24.1205 7.36516 25.7777 9.0223 25.7777 11.0477H18.4126C18.4126 9.0223 20.0698 7.36516 22.0951 7.36516ZM22.0951 38H28.5L21.5 14L14.7301 14.7302V18.4128C14.7301 19.4255 15.5586 20.254 16.5713 20.254C17.584 20.254 18.4126 19.4255 18.4126 18.4128V14.7302H25.7777V18.4128C25.7777 19.4255 26.6063 20.254 27.619 20.254C28.6317 20.254 29.4602 19.4255 29.4602 18.4128V14.7302L19.5 12.5L22.0951 38Z" fill="#0C8CE9"/>
</svg>
