<svg width="43" height="43" viewBox="0 0 43 43" fill="none" xmlns="http://www.w3.org/2000/svg">
<path d="M32.2498 10.7499H28.6665C28.6665 6.79034 25.4594 3.58325 21.4998 3.58325C17.5403 3.58325 14.3332 6.79034 14.3332 10.7499H10.7498C8.779 10.7499 7.1665 12.3624 7.1665 14.3333V35.8333C7.1665 37.8041 8.779 39.4166 10.7498 39.4166H32.2498C34.2207 39.4166 35.8332 37.8041 35.8332 35.8333V14.3333C35.8332 12.3624 34.2207 10.7499 32.2498 10.7499ZM21.4998 7.16659C23.4707 7.16659 25.0832 8.77909 25.0832 10.7499H17.9165C17.9165 8.77909 19.529 7.16659 21.4998 7.16659ZM32.2498 35.8333H10.7498V14.3333H14.3332V17.9166C14.3332 18.902 15.1394 19.7083 16.1248 19.7083C17.1103 19.7083 17.9165 18.902 17.9165 17.9166V14.3333H25.0832V17.9166C25.0832 18.902 25.8894 19.7083 26.8748 19.7083C27.8603 19.7083 28.6665 18.902 28.6665 17.9166V14.3333H32.2498V35.8333Z" fill="white"/>
</svg>
