<svg width="28" height="34" viewBox="0 0 28 34" fill="none" xmlns="http://www.w3.org/2000/svg">
<path d="M14 34C15.925 34 17.5 32.4308 17.5 30.5128H10.5C10.5 32.4308 12.075 34 14 34ZM24.5 23.5385V14.8205C24.5 9.46769 21.6475 4.98667 16.625 3.80103V2.61538C16.625 1.16821 15.4525 0 14 0C12.5475 0 11.375 1.16821 11.375 2.61538V3.80103C6.37 4.98667 3.5 9.45026 3.5 14.8205V23.5385L0 27.0256V28.7692H28V27.0256L24.5 23.5385ZM21 25.2821H7V14.8205C7 10.4964 9.6425 6.97436 14 6.97436C18.3575 6.97436 21 10.4964 21 14.8205V25.2821Z" fill="white"/>
</svg>
