<svg width="42" height="38" viewBox="0 0 42 38" fill="none" xmlns="http://www.w3.org/2000/svg">
<path d="M21.5 34C23.2188 34 24.625 32.6154 24.625 30.9231H18.375C18.375 32.6154 19.7812 34 21.5 34ZM30.875 24.7692V17.0769C30.875 12.3538 28.3281 8.4 23.8438 7.35385V6.30769C23.8438 5.03077 22.7969 4 21.5 4C20.2031 4 19.1562 5.03077 19.1562 6.30769V7.35385C14.6875 8.4 12.125 12.3385 12.125 17.0769V24.7692L9 27.8462V29.3846H34V27.8462L30.875 24.7692ZM27.75 26.3077H15.25V17.0769C15.25 13.2615 17.6094 10.1538 21.5 10.1538C25.3906 10.1538 27.75 13.2615 27.75 17.0769V26.3077Z" fill="white"/>
</svg>
