<svg width="47" height="38" viewBox="0 0 47 38" fill="none" xmlns="http://www.w3.org/2000/svg">
<path d="M8 8V28H25.2C24.8333 26.8833 24.6667 25.7667 24.6667 24.6667H14.6667C14.6667 22.8333 13.1833 21.3333 11.3333 21.3333V14.6667C13.1833 14.6667 14.6667 13.1833 14.6667 11.3333H31.3333C31.3333 13.1833 32.8333 14.6667 34.6667 14.6667V14.7667C35.7833 14.7667 36.9 14.9667 38 15.3333V8H8ZM23 13C20.1667 13.05 18 15.1667 18 18C18 20.8333 20.1667 22.9 23 23C23.6333 23 24.2833 22.8667 24.9 22.6167C25.35 20.7833 26.1 19.05 27.95 17.35C27.75 15.1333 25.65 12.95 23 13ZM39.05 18.45L32.6 24.95L30.35 22.6667L28 25.0333L32.5833 29.6667L41.3833 20.8L39.05 18.45Z" fill="white"/>
</svg>
