<svg width="34" height="22" viewBox="0 0 34 22" fill="none" xmlns="http://www.w3.org/2000/svg">
<path d="M0 0V20H17.2C16.8333 18.8833 16.6667 17.7667 16.6667 16.6667H6.66667C6.66667 14.8333 5.18333 13.3333 3.33333 13.3333V6.66667C5.18333 6.66667 6.66667 5.18333 6.66667 3.33333H23.3333C23.3333 5.18333 24.8333 6.66667 26.6667 6.66667V6.76667C27.7833 6.76667 28.9 6.96667 30 7.33333V0H0ZM15 5C12.1667 5.05 10 7.16667 10 10C10 12.8333 12.1667 14.9 15 15C15.6333 15 16.2833 14.8667 16.9 14.6167C17.35 12.7833 18.1 11.05 19.95 9.35C19.75 7.13333 17.65 4.95 15 5ZM31.05 10.45L24.6 16.95L22.35 14.6667L20 17.0333L24.5833 21.6667L33.3833 12.8L31.05 10.45Z" fill="white"/>
</svg>
