<svg width="48" height="48" viewBox="0 0 48 48" fill="none" xmlns="http://www.w3.org/2000/svg">
<g clip-path="url(#clip0_173_10)">
<path d="M35.6667 6H12.3333C10.4833 6 9 7.5 9 9.33333V32.6667C9 34.5 10.4833 36 12.3333 36H19L24 41L29 36H35.6667C37.5 36 39 34.5 39 32.6667V9.33333C39 7.5 37.5 6 35.6667 6ZM35.6667 32.6667H27.6167L26.6333 33.65L24 36.2833L21.35 33.6333L20.3833 32.6667H12.3333V9.33333H35.6667V32.6667ZM22.3333 27.6667H25.6667V31H22.3333V27.6667ZM24 14.3333C25.8333 14.3333 27.3333 15.8333 27.3333 17.6667C27.3333 21 22.3333 20.5833 22.3333 26H25.6667C25.6667 22.25 30.6667 21.8333 30.6667 17.6667C30.6667 13.9833 27.6833 11 24 11C20.3167 11 17.3333 13.9833 17.3333 17.6667H20.6667C20.6667 15.8333 22.1667 14.3333 24 14.3333Z" fill="white"/>
</g>
<defs>
<clipPath id="clip0_173_10">
<rect width="48" height="48" fill="white"/>
</clipPath>
</defs>
</svg>
