<svg width="29" height="26" viewBox="0 0 29 26" fill="none" xmlns="http://www.w3.org/2000/svg">
<path d="M27.7965 0C28.1155 0 28.4007 0.12381 28.652 0.371429C28.884 0.609143 29 0.896381 29 1.23314V24.7669C29 25.1036 28.884 25.3909 28.652 25.6286C28.4007 25.8762 28.1155 26 27.7965 26H8.4535C8.1345 26 7.84933 25.8762 7.598 25.6286C7.366 25.3909 7.25 25.1036 7.25 24.7669V20.4286H1.2035C0.8845 20.4286 0.599333 20.3097 0.348 20.072C0.116 19.8145 0 19.5223 0 19.1954V6.80457C0 6.47771 0.116 6.18552 0.348 5.928C0.599333 5.69029 0.8845 5.57143 1.2035 5.57143H7.25V1.23314C7.25 0.896381 7.366 0.609143 7.598 0.371429C7.84933 0.12381 8.1345 0 8.4535 0M7.25 14.5749L8.961 17.8731H11.5565L8.7 13.0891L11.4985 8.37943H9.019L7.4385 11.3657L7.3805 11.4549L7.337 11.5589C7.08567 11.0339 6.815 10.504 6.525 9.96914C6.28333 9.44419 6.02717 8.91429 5.7565 8.37943H3.132L5.8725 13.1189L2.9 17.8731H5.481M17.226 24.1429V20.4286H9.0625V24.1429M17.226 18.5714V13.936H14.5V18.5714M17.226 12.0789V7.42857H14.5V12.0789M17.226 5.57143V1.85714H9.0625V5.57143M27.1875 24.1429V20.4286H19.0385V24.1429M27.1875 18.5714V13.936H19.0385V18.5714M27.1875 12.0789V7.42857H19.0385V12.0789M27.1875 5.57143V1.85714H19.0385V5.57143H27.1875Z" fill="white"/>
</svg>
