<svg width="43" height="38" viewBox="0 0 43 38" fill="none" xmlns="http://www.w3.org/2000/svg">
<path d="M33.7965 6C34.1155 6 34.4007 6.12381 34.652 6.37143C34.884 6.60914 35 6.89638 35 7.23314V30.7669C35 31.1036 34.884 31.3909 34.652 31.6286C34.4007 31.8762 34.1155 32 33.7965 32H14.4535C14.1345 32 13.8493 31.8762 13.598 31.6286C13.366 31.3909 13.25 31.1036 13.25 30.7669V26.4286H7.2035C6.8845 26.4286 6.59933 26.3097 6.348 26.072C6.116 25.8145 6 25.5223 6 25.1954V12.8046C6 12.4777 6.116 12.1855 6.348 11.928C6.59933 11.6903 6.8845 11.5714 7.2035 11.5714H13.25V7.23314C13.25 6.89638 13.366 6.60914 13.598 6.37143C13.8493 6.12381 14.1345 6 14.4535 6M13.25 20.5749L14.961 23.8731H17.5565L14.7 19.0891L17.4985 14.3794H15.019L13.4385 17.3657L13.3805 17.4549L13.337 17.5589C13.0857 17.0339 12.815 16.504 12.525 15.9691C12.2833 15.4442 12.0272 14.9143 11.7565 14.3794H9.132L11.8725 19.1189L8.9 23.8731H11.481M23.226 30.1429V26.4286H15.0625V30.1429M23.226 24.5714V19.936H20.5V24.5714M23.226 18.0789V13.4286H20.5V18.0789M23.226 11.5714V7.85714H15.0625V11.5714M33.1875 30.1429V26.4286H25.0385V30.1429M33.1875 24.5714V19.936H25.0385V24.5714M33.1875 18.0789V13.4286H25.0385V18.0789M33.1875 11.5714V7.85714H25.0385V11.5714H33.1875Z" fill="white"/>
</svg>
