<svg width="36" height="36" viewBox="0 0 36 36" fill="none" xmlns="http://www.w3.org/2000/svg">
<g clip-path="url(#clip0_36_988)">
<path d="M18 16.35C17.085 16.35 16.35 17.085 16.35 18C16.35 18.915 17.085 19.65 18 19.65C18.915 19.65 19.65 18.915 19.65 18C19.65 17.085 18.915 16.35 18 16.35ZM18 3C9.72 3 3 9.72 3 18C3 26.28 9.72 33 18 33C26.28 33 33 26.28 33 18C33 9.72 26.28 3 18 3ZM21.285 21.285L9 27L14.715 14.715L27 9L21.285 21.285Z" fill="white"/>
</g>
<defs>
<clipPath id="clip0_36_988">
<rect width="36" height="36" fill="white"/>
</clipPath>
</defs>
</svg>
