<svg width="38" height="38" viewBox="0 0 38 38" fill="none" xmlns="http://www.w3.org/2000/svg">
<g clip-path="url(#clip0_32_72)">
<path d="M26.1248 4.75C23.3698 4.75 20.7257 6.0325 18.9998 8.05917C17.274 6.0325 14.6298 4.75 11.8748 4.75C6.99817 4.75 3.1665 8.58167 3.1665 13.4583C3.1665 19.4433 8.54984 24.32 16.704 31.73L18.9998 33.8042L21.2957 31.7142C29.4498 24.32 34.8332 19.4433 34.8332 13.4583C34.8332 8.58167 31.0015 4.75 26.1248 4.75ZM19.1582 29.3708L18.9998 29.5292L18.8415 29.3708C11.3048 22.5467 6.33317 18.0342 6.33317 13.4583C6.33317 10.2917 8.70817 7.91667 11.8748 7.91667C14.3132 7.91667 16.6882 9.48417 17.5273 11.6533H20.4882C21.3115 9.48417 23.6865 7.91667 26.1248 7.91667C29.2915 7.91667 31.6665 10.2917 31.6665 13.4583C31.6665 18.0342 26.6948 22.5467 19.1582 29.3708Z" fill="black"/>
</g>
<defs>
<clipPath id="clip0_32_72">
<rect width="38" height="38" fill="white"/>
</clipPath>
</defs>
</svg>
