<svg width="50" height="50" viewBox="0 0 50 50" fill="none" xmlns="http://www.w3.org/2000/svg">
<path d="M44.4444 22.2222V16.6667H22.2222V5.55556H16.6667V16.6667H5.55556V22.2222H16.6667V44.4444H22.2222V22.2222H44.4444ZM44.4444 0C45.8333 0 47.2222 0.555555 48.3056 1.69444C49.4444 2.77778 50 4.16667 50 5.55556V44.4444C50 45.8333 49.4444 47.2222 48.3056 48.3056C47.2222 49.4444 45.8333 50 44.4444 50H5.55556C4.16667 50 2.77778 49.4444 1.69444 48.3056C0.555555 47.2222 0 45.8333 0 44.4444V5.55556C0 4.16667 0.555555 2.77778 1.69444 1.69444C2.77778 0.555555 4.16667 0 5.55556 0H44.4444Z" fill="black"/>
</svg>
