<svg width="22" height="22" viewBox="0 0 22 22" fill="none" xmlns="http://www.w3.org/2000/svg">
<path d="M19.8 0H2.2C0.99 0 0 0.99 0 2.2V19.8C0 21.01 0.99 22 2.2 22H19.8C21.01 22 22 21.01 22 19.8V2.2C22 0.99 21.01 0 19.8 0ZM6.6 19.8H2.2V15.4H6.6V19.8ZM6.6 13.2H2.2V8.8H6.6V13.2ZM6.6 6.6H2.2V2.2H6.6V6.6ZM13.2 19.8H8.8V15.4H13.2V19.8ZM13.2 13.2H8.8V8.8H13.2V13.2ZM13.2 6.6H8.8V2.2H13.2V6.6ZM19.8 19.8H15.4V15.4H19.8V19.8ZM19.8 13.2H15.4V8.8H19.8V13.2ZM19.8 6.6H15.4V2.2H19.8V6.6Z" fill="#F0F0F0"/>
</svg>
