<svg width="41" height="41" viewBox="0 0 41 41" fill="none" xmlns="http://www.w3.org/2000/svg">
<path d="M30.7497 10.2503H27.333C27.333 6.47491 24.2751 3.41699 20.4997 3.41699C16.7243 3.41699 13.6663 6.47491 13.6663 10.2503H10.2497C8.37051 10.2503 6.83301 11.7878 6.83301 13.667V34.167C6.83301 36.0462 8.37051 37.5837 10.2497 37.5837H30.7497C32.6288 37.5837 34.1663 36.0462 34.1663 34.167V13.667C34.1663 11.7878 32.6288 10.2503 30.7497 10.2503ZM20.4997 6.83366C22.3788 6.83366 23.9163 8.37116 23.9163 10.2503H17.083C17.083 8.37116 18.6205 6.83366 20.4997 6.83366ZM30.7497 34.167H10.2497V13.667H13.6663V17.0837C13.6663 18.0232 14.4351 18.792 15.3747 18.792C16.3143 18.792 17.083 18.0232 17.083 17.0837V13.667H23.9163V17.0837C23.9163 18.0232 24.6851 18.792 25.6247 18.792C26.5643 18.792 27.333 18.0232 27.333 17.0837V13.667H30.7497V34.167Z" fill="white"/>
<path d="M22 29.5714H38V27.8571H22V29.5714ZM22 33H38V31.2857H22V33ZM22 26.1429H38V24.4286H22V26.1429ZM22 21V22.7143H38V21H22Z" fill="white"/>
</svg>
