<svg width="48" height="48" viewBox="0 0 48 48" fill="none" xmlns="http://www.w3.org/2000/svg">
<path d="M39.3187 25.96C39.3987 25.32 39.4587 24.68 39.4587 24C39.4587 23.32 39.3987 22.68 39.3187 22.04L43.5387 18.74C43.9187 18.44 44.0187 17.9 43.7787 17.46L39.7787 10.54C39.5987 10.22 39.2587 10.04 38.8987 10.04C38.7787 10.04 38.6587 10.06 38.5587 10.1L33.5787 12.1C32.5387 11.3 31.4187 10.64 30.1987 10.14L29.4387 4.84C29.3787 4.36 28.9587 4 28.4587 4H20.4587C19.9587 4 19.5387 4.36 19.4787 4.84L18.7187 10.14C17.4987 10.64 16.3787 11.32 15.3387 12.1L10.3587 10.1C10.2387 10.06 10.1187 10.04 9.99866 10.04C9.65866 10.04 9.31866 10.22 9.13866 10.54L5.13866 17.46C4.87866 17.9 4.99866 18.44 5.37866 18.74L9.59866 22.04C9.51866 22.68 9.45866 23.34 9.45866 24C9.45866 24.66 9.51866 25.32 9.59866 25.96L5.37866 29.26C4.99866 29.56 4.89866 30.1 5.13866 30.54L9.13866 37.46C9.31866 37.78 9.65866 37.96 10.0187 37.96C10.1387 37.96 10.2587 37.94 10.3587 37.9L15.3387 35.9C16.3787 36.7 17.4987 37.36 18.7187 37.86L19.4787 43.16C19.5387 43.64 19.9587 44 20.4587 44H28.4587C28.9587 44 29.3787 43.64 29.4387 43.16L30.1987 37.86C31.4187 37.36 32.5387 36.68 33.5787 35.9L38.5587 37.9C38.6787 37.94 38.7987 37.96 38.9187 37.96C39.2587 37.96 39.5987 37.78 39.7787 37.46L43.7787 30.54C44.0187 30.1 43.9187 29.56 43.5387 29.26L39.3187 25.96ZM35.3587 22.54C35.4387 23.16 35.4587 23.58 35.4587 24C35.4587 24.42 35.4187 24.86 35.3587 25.46L35.0787 27.72L36.8587 29.12L39.0187 30.8L37.6187 33.22L35.0787 32.2L32.9987 31.36L31.1987 32.72C30.3387 33.36 29.5187 33.84 28.6987 34.18L26.5787 35.04L26.2587 37.3L25.8587 40H23.0587L22.6787 37.3L22.3587 35.04L20.2387 34.18C19.3787 33.82 18.5787 33.36 17.7787 32.76L15.9587 31.36L13.8387 32.22L11.2987 33.24L9.89866 30.82L12.0587 29.14L13.8387 27.74L13.5587 25.48C13.4987 24.86 13.4587 24.4 13.4587 24C13.4587 23.6 13.4987 23.14 13.5587 22.54L13.8387 20.28L12.0587 18.88L9.89866 17.2L11.2987 14.78L13.8387 15.8L15.9187 16.64L17.7187 15.28C18.5787 14.64 19.3987 14.16 20.2187 13.82L22.3387 12.96L22.6587 10.7L23.0587 8H25.8387L26.2187 10.7L26.5387 12.96L28.6587 13.82C29.5187 14.18 30.3187 14.64 31.1187 15.24L32.9387 16.64L35.0587 15.78L37.5987 14.76L38.9987 17.18L36.8587 18.88L35.0787 20.28L35.3587 22.54ZM24.4587 16C20.0387 16 16.4587 19.58 16.4587 24C16.4587 28.42 20.0387 32 24.4587 32C28.8787 32 32.4587 28.42 32.4587 24C32.4587 19.58 28.8787 16 24.4587 16ZM24.4587 28C22.2587 28 20.4587 26.2 20.4587 24C20.4587 21.8 22.2587 20 24.4587 20C26.6587 20 28.4587 21.8 28.4587 24C28.4587 26.2 26.6587 28 24.4587 28Z" fill="white"/>
</svg>
