<svg width="48" height="48" viewBox="0 0 48 48" fill="none" xmlns="http://www.w3.org/2000/svg">
<g clip-path="url(#clip0_32_75)">
<rect width="48" height="48" fill="white" fill-opacity="0.01"/>
<path d="M36 12H32C32 7.58 28.42 4 24 4C19.58 4 16 7.58 16 12H12C9.8 12 8 13.8 8 16V40C8 42.2 9.8 44 12 44H36C38.2 44 40 42.2 40 40V16C40 13.8 38.2 12 36 12ZM24 8C26.2 8 28 9.8 28 12H20C20 9.8 21.8 8 24 8ZM36 40H12V16H16V20C16 21.1 16.9 22 18 22C19.1 22 20 21.1 20 20V16H28V20C28 21.1 28.9 22 30 22C31.1 22 32 21.1 32 20V16H36V40Z" fill="black"/>
</g>
<defs>
<clipPath id="clip0_32_75">
<rect width="48" height="48" fill="white"/>
</clipPath>
</defs>
</svg>
