<svg width="48" height="48" viewBox="0 0 48 48" fill="none" xmlns="http://www.w3.org/2000/svg">
<g clip-path="url(#clip0_173_16)">
<path d="M26.1111 9H22.8889V25.1111H26.1111V9ZM33.8928 12.4961L31.605 14.7839C34.1506 16.83 35.7778 19.9717 35.7778 23.5C35.7778 29.735 30.735 34.7778 24.5 34.7778C18.265 34.7778 13.2222 29.735 13.2222 23.5C13.2222 19.9717 14.8494 16.83 17.3789 14.7678L15.1072 12.4961C11.9817 15.1544 10 19.0856 10 23.5C10 31.5072 16.4928 38 24.5 38C32.5072 38 39 31.5072 39 23.5C39 19.0856 37.0183 15.1544 33.8928 12.4961Z" fill="white"/>
</g>
<defs>
<clipPath id="clip0_173_16">
<rect width="48" height="48" fill="white"/>
</clipPath>
</defs>
</svg>
