<svg width="48" height="48" viewBox="0 0 48 48" fill="none" xmlns="http://www.w3.org/2000/svg">
<g clip-path="url(#clip0_174_30)">
<path d="M28.6267 17.5625L29.3933 21.5H11.6067L12.3733 17.5625H28.6267ZM30.7222 11H10.2778V13.625H30.7222V11ZM30.7222 14.9375H10.2778L9 21.5V24.125H10.2778V32H23.0556V24.125H28.1667V32H30.7222V24.125H32V21.5L30.7222 14.9375ZM12.8333 29.375V24.125H20.5V29.375H12.8333Z" fill="white"/>
<path d="M39.1688 24C38.9667 24 38.7646 24.0773 38.6106 24.2313L37.0317 25.8102L35.9154 26.9266L27 35.8421V39H30.1578L41.7685 27.3892C42.0772 27.0805 42.0772 26.5807 41.7685 26.2728L39.727 24.2313C39.573 24.0773 39.3709 24 39.1688 24ZM39.1688 25.9058L40.094 26.831L39.0732 27.8518L38.1481 26.9266L39.1688 25.9058ZM37.0317 28.043L37.9569 28.9681L29.5041 37.4211H28.5789V36.4959L37.0317 28.043Z" fill="white"/>
</g>
<defs>
<clipPath id="clip0_174_30">
<rect width="48" height="48" fill="white"/>
</clipPath>
</defs>
</svg>
