<svg width="52" height="52" viewBox="0 0 52 52" fill="none" xmlns="http://www.w3.org/2000/svg">
<path d="M31.9522 7V9.28594C30.5454 9.62998 29.2987 10.2208 28.3991 11.1525L26.5893 10.1061L24.6943 13.3939L26.6041 14.4998C26.4382 15.1607 26.2673 15.8246 26.2673 16.5C26.2673 17.1754 26.4382 17.8393 26.6041 18.5002L24.6943 19.6061L26.5893 22.8939L28.3991 21.8475C29.2987 22.7792 30.5454 23.37 31.9522 23.7141V26H35.7421V23.7141C37.149 23.37 38.3956 22.7792 39.2952 21.8475L41.105 22.8939L43 19.6061L41.0902 18.5002C41.2561 17.8393 41.427 17.1754 41.427 16.5C41.427 15.8246 41.2561 15.1607 41.0902 14.4998L43 13.3939L41.105 10.1061L39.2952 11.1525C38.3956 10.2208 37.149 9.62998 35.7421 9.28594V7H31.9522ZM33.8472 12.7C35.2684 12.7 36.0931 13.166 36.6933 13.843C37.2935 14.52 37.6371 15.4972 37.6371 16.5C37.6371 17.5028 37.2935 18.48 36.6933 19.157C36.0931 19.834 35.2684 20.3 33.8472 20.3C32.4259 20.3 31.6012 19.834 31.001 19.157C30.4008 18.48 30.0572 17.5028 30.0572 16.5C30.0572 15.4972 30.4008 14.52 31.001 13.843C31.6012 13.166 32.4259 12.7 33.8472 12.7ZM14.8975 22.2V24.4822C12.7928 24.8854 10.9258 25.7193 9.69001 27.1133C9.6537 27.1542 9.64403 27.2091 9.60858 27.2506L7.89497 26.2561L6 29.5439L7.82465 30.6016C7.52652 31.5793 7.3176 32.5858 7.3176 33.6C7.3176 34.6142 7.52652 35.6207 7.82465 36.5984L6 37.6561L7.89497 40.9439L9.60858 39.9494C9.64403 39.9909 9.6537 40.0458 9.69001 40.0867C10.9258 41.4807 12.7928 42.3146 14.8975 42.7178V45H18.6874V42.7178C20.7921 42.3146 22.659 41.4807 23.8949 40.0867C23.9312 40.0458 23.9408 39.9909 23.9763 39.9494L25.6899 40.9439L27.5849 37.6561L25.7602 36.5984C26.0584 35.6207 26.2673 34.6142 26.2673 33.6C26.2673 32.5858 26.0584 31.5793 25.7602 30.6016L27.5849 29.5439L25.6899 26.2561L23.9763 27.2506C23.9408 27.2091 23.9312 27.1542 23.8949 27.1133C22.659 25.7193 20.7921 24.8854 18.6874 24.4822V22.2H14.8975ZM16.7924 27.9C18.8453 27.9 20.1438 28.6035 21.0598 29.6367C21.9758 30.67 22.4773 32.1222 22.4773 33.6C22.4773 35.0778 21.9758 36.53 21.0598 37.5633C20.1438 38.5965 18.8453 39.3 16.7924 39.3C14.7396 39.3 13.4411 38.5965 12.5251 37.5633C11.609 36.53 11.1075 35.0778 11.1075 33.6C11.1075 32.1222 11.609 30.67 12.5251 29.6367C13.4411 28.6035 14.7396 27.9 16.7924 27.9ZM16.7924 31.7C16.2899 31.7 15.8079 31.9002 15.4525 32.2565C15.0971 32.6128 14.8975 33.0961 14.8975 33.6C14.8975 34.1039 15.0971 34.5872 15.4525 34.9435C15.8079 35.2998 16.2899 35.5 16.7924 35.5C17.295 35.5 17.777 35.2998 18.1324 34.9435C18.4878 34.5872 18.6874 34.1039 18.6874 33.6C18.6874 33.0961 18.4878 32.6128 18.1324 32.2565C17.777 31.9002 17.295 31.7 16.7924 31.7Z" fill="white"/>
</svg>
