<svg width="48" height="48" viewBox="0 0 48 48" fill="none" xmlns="http://www.w3.org/2000/svg">
<g clip-path="url(#clip0_173_13)">
<path d="M35.2062 24.6434C34.7588 24.3861 34.2954 24.1769 33.832 24C34.2954 23.8231 34.7588 23.6139 35.2062 23.3566C38.2742 21.571 39.984 18.3378 40 15.008C38.5459 14.1716 36.884 13.7212 35.1902 13.7212C33.5603 13.7212 31.9144 14.1394 30.4124 15.008C29.9649 15.2654 29.5495 15.571 29.166 15.8767C29.2459 15.378 29.2938 14.8633 29.2938 14.3485C29.2938 10.7775 27.3603 7.67292 24.5 6C21.6397 7.67292 19.7062 10.7775 19.7062 14.3485C19.7062 14.8633 19.7541 15.378 19.834 15.8767C19.4505 15.555 19.0351 15.2493 18.5876 14.992C17.0856 14.1233 15.4397 13.7051 13.8098 13.7051C12.132 13.7051 10.4541 14.1555 9 14.992C9 18.3217 10.7098 21.555 13.7938 23.3405C14.2412 23.5979 14.7046 23.807 15.168 23.9839C14.7046 24.1609 14.2412 24.37 13.7938 24.6273C10.7258 26.4129 9.01598 29.6461 9 32.9759C10.4541 33.8123 12.116 34.2627 13.8098 34.2627C15.4397 34.2627 17.0856 33.8445 18.5876 32.9759C19.0351 32.7185 19.4505 32.4129 19.834 32.1072C19.7541 32.622 19.7062 33.1367 19.7062 33.6515C19.7062 37.2225 21.6397 40.3271 24.5 42C27.3603 40.3271 29.2938 37.2225 29.2938 33.6515C29.2938 33.1367 29.2459 32.622 29.166 32.1233C29.5495 32.445 29.9649 32.7346 30.4124 32.992C31.9144 33.8606 33.5603 34.2788 35.1902 34.2788C36.868 34.2788 38.5459 33.8284 40 32.992C39.984 29.6622 38.2742 26.429 35.2062 24.6434ZM31.1474 18.4021C31.483 18.1287 31.7546 17.9357 32.0103 17.807C32.9851 17.244 34.0876 16.9383 35.2062 16.9383C35.6376 16.9383 36.0531 16.9866 36.4686 17.067C35.9732 18.5308 34.9665 19.7855 33.6242 20.5737C33.3526 20.7346 33.049 20.8633 32.6974 21.008L30.4923 21.8445C30.2206 21.1046 29.8371 20.445 29.3418 19.8499L31.1474 18.4021ZM24.5 10.118C25.5067 11.2761 26.0979 12.7882 26.0979 14.3485C26.0979 14.6542 26.066 15.008 26.018 15.3619L25.6505 17.6783C25.267 17.6139 24.8835 17.5657 24.5 17.5657C24.1165 17.5657 23.733 17.6139 23.3655 17.6783L22.9979 15.3619C22.934 15.008 22.9021 14.6542 22.9021 14.3485C22.9021 12.7721 23.4933 11.2761 24.5 10.118ZM12.5314 17.0509C12.9469 16.9544 13.3784 16.9223 13.8098 16.9223C14.9124 16.9223 16.0149 17.2118 16.9897 17.7909C17.2294 17.9357 17.501 18.1126 17.7727 18.3539L19.6103 19.8981C19.1309 20.4772 18.7634 21.1206 18.4918 21.8284L16.2866 20.992C15.951 20.8472 15.6474 20.7024 15.3918 20.5576C14.0015 19.7533 13.0108 18.5147 12.5314 17.0509ZM17.8526 29.5818C17.517 29.8552 17.2454 30.0483 16.9897 30.1769C16.0149 30.7399 14.9124 31.0456 13.7938 31.0456C13.3624 31.0456 12.9469 30.9973 12.5314 30.9169C13.0268 29.4531 14.0335 28.1984 15.3758 27.4102C15.6474 27.2493 15.951 27.1206 16.3026 26.9759L18.5077 26.1394C18.7634 26.8794 19.1629 27.555 19.6582 28.134L17.8526 29.5818ZM24.5 37.882C23.4933 36.7239 22.9021 35.2118 22.9021 33.6515C22.9021 33.3298 22.934 32.992 22.9979 32.6059L23.3495 30.3217C23.717 30.3861 24.1005 30.4343 24.5 30.4343C24.8835 30.4343 25.267 30.3861 25.6345 30.3217L26.0021 32.6381C26.066 32.992 26.0979 33.3458 26.0979 33.6515C26.0979 35.2279 25.5067 36.7239 24.5 37.882ZM35.1902 31.0617C34.0876 31.0617 32.9851 30.7721 32.0103 30.193C31.7227 30.0322 31.467 29.8391 31.2273 29.6461L29.3897 28.1019C29.8691 27.5228 30.2526 26.8794 30.5082 26.1555L32.7134 26.992C33.0649 27.1206 33.3686 27.2654 33.6242 27.4102C34.9825 28.1984 35.9732 29.4531 36.4686 30.9169C36.0371 31.0295 35.6057 31.0617 35.1902 31.0617Z" fill="white"/>
</g>
<defs>
<clipPath id="clip0_173_13">
<rect width="48" height="48" fill="white"/>
</clipPath>
</defs>
</svg>
