<svg width="53" height="53" viewBox="0 0 53 53" fill="none" xmlns="http://www.w3.org/2000/svg">
<path d="M5.04762 0C2.24619 0 0 2.24619 0 5.04762V32.8095C0 35.611 2.24619 37.8571 5.04762 37.8571H32.8095C35.611 37.8571 37.8571 35.611 37.8571 32.8095V25.2381H32.8095V32.8095H5.04762V5.04762H32.8095V10.0952H37.8571V5.04762C37.8571 2.24619 35.611 0 32.8095 0M20.1905 15.1429C17.389 15.1429 15.1429 17.389 15.1429 20.1905V27.7619H20.1905V20.1905H47.9524V47.9524H20.1905V42.9048H15.1429V47.9524C15.1429 50.7538 17.389 53 20.1905 53H47.9524C50.7538 53 53 50.7538 53 47.9524V20.1905C53 17.389 50.7538 15.1429 47.9524 15.1429H20.1905Z" fill="black"/>
</svg>
