<svg width="48" height="48" viewBox="0 0 48 48" fill="none" xmlns="http://www.w3.org/2000/svg">
<g clip-path="url(#clip0_236_2)">
<path d="M44 17.96V36C44 38.2 42.2 40 40 40H8C5.8 40 4 38.2 4 36L4.02 12C4.02 9.8 5.8 8 8 8H28.2C28.08 8.64 28 9.32 28 10C28 10.68 28.08 11.36 28.2 12H8L24 22L31.34 17.42C32.28 18.28 33.38 18.94 34.6 19.38L24 26L8 16V36H40V19.8C41.48 19.5 42.84 18.84 44 17.96ZM32 10C32 13.32 34.68 16 38 16C41.32 16 44 13.32 44 10C44 6.68 41.32 4 38 4C34.68 4 32 6.68 32 10Z" fill="white"/>
</g>
<defs>
<clipPath id="clip0_236_2">
<rect width="48" height="48" fill="white"/>
</clipPath>
</defs>
</svg>
