<svg width="48" height="48" viewBox="0 0 48 48" fill="none" xmlns="http://www.w3.org/2000/svg">
<g clip-path="url(#clip0_173_22)">
<path d="M12 25.5C13.65 25.5 15 24.15 15 22.5C15 20.85 13.65 19.5 12 19.5C10.35 19.5 9 20.85 9 22.5C9 24.15 10.35 25.5 12 25.5ZM13.695 27.15C13.14 27.06 12.585 27 12 27C10.515 27 9.105 27.315 7.83 27.87C6.72 28.35 6 29.43 6 30.645V33H12.75V30.585C12.75 29.34 13.095 28.17 13.695 27.15ZM36 25.5C37.65 25.5 39 24.15 39 22.5C39 20.85 37.65 19.5 36 19.5C34.35 19.5 33 20.85 33 22.5C33 24.15 34.35 25.5 36 25.5ZM42 30.645C42 29.43 41.28 28.35 40.17 27.87C38.895 27.315 37.485 27 36 27C35.415 27 34.86 27.06 34.305 27.15C34.905 28.17 35.25 29.34 35.25 30.585V33H42V30.645ZM30.36 26.475C28.605 25.695 26.445 25.125 24 25.125C21.555 25.125 19.395 25.71 17.64 26.475C16.02 27.195 15 28.815 15 30.585V33H33V30.585C33 28.815 31.98 27.195 30.36 26.475ZM18.105 30C18.24 29.655 18.3 29.415 19.47 28.965C20.925 28.395 22.455 28.125 24 28.125C25.545 28.125 27.075 28.395 28.53 28.965C29.685 29.415 29.745 29.655 29.895 30H18.105ZM24 18C24.825 18 25.5 18.675 25.5 19.5C25.5 20.325 24.825 21 24 21C23.175 21 22.5 20.325 22.5 19.5C22.5 18.675 23.175 18 24 18ZM24 15C21.51 15 19.5 17.01 19.5 19.5C19.5 21.99 21.51 24 24 24C26.49 24 28.5 21.99 28.5 19.5C28.5 17.01 26.49 15 24 15Z" fill="white"/>
</g>
<defs>
<clipPath id="clip0_173_22">
<rect width="48" height="48" fill="white"/>
</clipPath>
</defs>
</svg>
